<svg class="icon" style="width: 1em; height: 1em;vertical-align: middle;fill: currentColor;overflow: hidden;" viewBox="0 0 1024 1024" version="1.1" xmlns="http://www.w3.org/2000/svg" p-id="1603"><path d="M513 510.2m-507 0a507 507 0 1 0 1014 0 507 507 0 1 0-1014 0Z" fill="#E06463" p-id="1604"></path><path d="M686.4 494.9l-9.9-60.9c-6.8-75.6-70-133.5-145.9-133.5h-35.1c-75.9 0-139.1 58-145.9 133.5l-9.9 60.9c-52 40.8-85.7 104-85.7 174.9 0 122.4 100.2 222.5 222.5 222.5h73.1c122.4 0 222.5-100.2 222.5-222.5 0-70.9-33.7-134.1-85.7-174.9z" fill="#EDC21E" p-id="1605"></path><path d="M549.5 900.5h-73.1c-61.3 0-119.3-24-162.9-67.8-43.7-43.7-67.8-101.6-67.8-162.9 0-69.9 31.4-135 86.3-179.3l9.3-57.5c3.5-38.5 21.1-74 49.6-100.1 28.6-26.1 65.7-40.6 104.4-40.6h35.1c38.7 0 75.8 14.3 104.4 40.6 28.5 26.1 46.1 61.6 49.6 100.1l9.3 57.5C748.6 534.8 780 600 780 669.8c0 61.3-24 119.3-67.8 162.9-43.7 43.7-101.2 67.8-162.7 67.8z m-54.1-591.9c-34.6 0-67.8 12.8-93.4 36.3-25.5 23.4-41.3 55.3-44.4 89.8l-0.1 0.6-10.5 64-2.4 2C292 542.4 262 603.8 262 669.7c0 57 22.4 110.8 63 151.4 40.6 40.6 94.3 63 151.4 63h73.1c57 0 110.8-22.4 151.4-63 40.6-40.6 63-94.3 63-151.4 0-65.9-30.1-127.3-82.6-168.5l-2.4-2-10.5-64.6c-3-34.5-18.9-66.4-44.4-89.8-25.5-23.4-58.8-36.3-93.4-36.3h-35.2z" fill="#151515" p-id="1606"></path><path d="M663.5 138.3c-13.5-20.4-65.8-9.3-116.7 24.5-16.2 10.8-30.3 22.6-41.5 34.3-5-6.5-10.4-13.1-16.8-19.4-33.9-33.9-73.2-49.4-87.9-34.8-14.7 14.7 0.8 54.1 34.8 87.9 15.6 15.6 32.3 27.1 47.2 33.7 5.5 4.8 14 6.8 24.7 6.4h1.4c23.1-1.2 55.4-13.4 87.2-34.6 50.9-33.6 81.1-77.7 67.6-98z" fill="#83B764" p-id="1607"></path><path d="M504.9 279.4c-11.3 0-20.3-2.6-26.7-7.7-16.3-7.5-33.6-19.8-48.7-35-38.2-38.2-53.2-81-34.8-99.5s61.2-3.5 99.5 34.8c4 4 7.8 8.2 11.7 12.9 10.6-10.1 23.1-20.1 36.3-28.9 56.4-37.5 111.5-47.1 128-22.3 8.5 12.8 5.1 31.7-9.7 53.2-13.3 19.4-34.8 39.4-60.2 56.3-31.8 21.2-66 34.6-91.3 36h-1.7c-0.8 0.2-1.6 0.2-2.4 0.2z m-88.8-133.6c-4.4 0-7.8 1-9.8 3.1-8.7 8.7 0.3 42 34.8 76.4 14.1 14.1 30 25.4 44.8 32.1 0.7 0.3 1.4 0.8 2 1.3 3.7 3.1 10.3 4.8 19.1 4.4h1.3c22.5-1.2 53.6-13.6 83-33.2 23.8-15.9 43.6-34.3 55.7-52 10.4-15.2 14-28.2 9.6-34.9-9.4-14.2-56.6-5.7-105.4 26.8-15 10-29 21.6-40.1 33.2-1.6 1.7-4 2.7-6.3 2.4-2.3-0.1-4.5-1.3-6.1-3.1-5.5-7.2-10.6-13.2-16.1-18.5-26.2-26.6-52-38-66.5-38z" fill="#151515" p-id="1608"></path><path d="M514.9 317.5c-4.3 0-7.8-3.3-8.2-7.7l-6.4-100.3c-0.2-4.5 3.1-8.4 7.6-8.6 4.5-0.3 8.4 3.1 8.6 7.6l6.4 100.3c0.2 4.5-3.1 8.4-7.6 8.6-0.1 0.1-0.3 0.1-0.4 0.1z" fill="#2C2217" p-id="1609"></path><path d="M666.7 804.8c-2.4 0-4.8-1-6.4-3.1-2.8-3.5-2.2-8.6 1.4-11.4 30.2-23.9 51.8-57.4 60.8-94.5 1-4.4 5.5-7.1 9.9-6.1s7.1 5.5 6.1 9.9c-9.8 40.6-33.5 77.3-66.6 103.4-1.7 1.2-3.4 1.8-5.2 1.8zM332.5 591.6c-1.2 0-2.2-0.2-3.3-0.7-4.1-1.9-5.9-6.6-4.2-10.7 6.1-13.8 13.9-26.8 23.2-38.8 2.8-3.6 7.9-4.2 11.4-1.4 3.6 2.8 4.2 7.9 1.4 11.4-8.5 11-15.6 22.9-21.2 35.5-1.1 2.8-4.1 4.7-7.3 4.7zM386.4 522.7c-0.5 0-0.9 0-1.3-0.1-4.4-0.7-7.5-4.9-6.8-9.3l7.9-48.9c2.1-23.6 10.7-45.8 25-64.6 2.7-3.6 7.8-4.3 11.4-1.6 3.6 2.7 4.3 7.8 1.6 11.4-12.4 16.4-19.9 36-21.8 56.6 0 0.2 0 0.3-0.1 0.6l-8 49.2c-0.6 3.8-4 6.7-7.9 6.7z" fill="#FFFBF8" p-id="1610"></path></svg>